{
  "accessors": [
    {
      "bufferView": 2,
      "componentType": 5126,
      "count": 65532,
      "max": [
        5.630712509155273,
        -7.1770524978637695,
        2.3872578144073486
      ],
      "min": [
        -3.3014094829559326,
        -14.098143577575684,
        -1.0423996448516846
      ],
      "type": "VEC3"
    },
    {
      "bufferView": 2,
      "byteOffset": 786384,
      "componentType": 5126,
      "count": 65532,
      "max": [
        0.9999924898147583,
        0.9999945163726807,
        0.9999997615814209
      ],
      "min": [
        -0.999380350112915,
        -1.0,
        -0.9999776482582092
      ],
      "type": "VEC3"
    },
    {
      "bufferView": 1,
      "componentType": 5126,
      "count": 65532,
      "max": [
        0.9997810125350952,
        0.9681400060653687
      ],
      "min": [
        0.00012199999764561653,
        0.0004030000127386302
      ],
      "type": "VEC2"
    },
    {
      "bufferView": 0,
      "componentType": 5125,
      "count": 305352,
      "type": "SCALAR"
    },
    {
      "bufferView": 2,
      "byteOffset": 1572768,
      "componentType": 5126,
      "count": 65532,
      "max": [
        7.231572151184082,
        -7.134043216705322,
        2.286695718765259
      ],
      "min": [
        -4.305777072906494,
        -15.436994552612305,
        -1.4064412117004395
      ],
      "type": "VEC3"
    },
    {
      "bufferView": 2,
      "byteOffset": 2359152,
      "componentType": 5126,
      "count": 65532,
      "max": [
        0.9999881982803345,
        0.9999821782112122,
        0.9999998807907104
      ],
      "min": [
        -0.9998834133148193,
        -1.0,
        -1.0
      ],
      "type": "VEC3"
    },
    {
      "bufferView": 1,
      "byteOffset": 524256,
      "componentType": 5126,
      "count": 65532,
      "max": [
        0.999783992767334,
        0.9681400060653687
      ],
      "min": [
        0.00012199999764561653,
        0.0003809999907389283
      ],
      "type": "VEC2"
    },
    {
      "bufferView": 0,
      "byteOffset": 1221408,
      "componentType": 5125,
      "count": 281610,
      "type": "SCALAR"
    },
    {
      "bufferView": 2,
      "byteOffset": 3145536,
      "componentType": 5126,
      "count": 65532,
      "max": [
        7.3488264083862305,
        -7.133080959320068,
        2.3771491050720215
      ],
      "min": [
        -4.284359931945801,
        -13.525381088256836,
        -1.042103886604309
      ],
      "type": "VEC3"
    },
    {
      "bufferView": 2,
      "byteOffset": 3931920,
      "componentType": 5126,
      "count": 65532,
      "max": [
        0.9999988675117493,
        0.9975658655166626,
        1.0
      ],
      "min": [
        -0.9998575448989868,
        -0.9999998211860657,
        -0.9999956488609314
      ],
      "type": "VEC3"
    },
    {
      "bufferView": 1,
      "byteOffset": 1048512,
      "componentType": 5126,
      "count": 65532,
      "max": [
        0.9934960007667542,
        0.9681400060653687
      ],
      "min": [
        0.004271999932825565,
        0.0004490000137593597
      ],
      "type": "VEC2"
    },
    {
      "bufferView": 0,
      "byteOffset": 2347848,
      "componentType": 5125,
      "count": 320010,
      "type": "SCALAR"
    },
    {
      "bufferView": 2,
      "byteOffset": 4718304,
      "componentType": 5126,
      "count": 65532,
      "max": [
        6.889902591705322,
        -7.129654407501221,
        2.428133010864258
      ],
      "min": [
        -4.3075385093688965,
        -15.436994552612305,
        -1.026829481124878
      ],
      "type": "VEC3"
    },
    {
      "bufferView": 2,
      "byteOffset": 5504688,
      "componentType": 5126,
      "count": 65532,
      "max": [
        0.9999924898147583,
        0.9998844265937805,
        0.9999999403953552
      ],
      "min": [
        -0.9999997615814209,
        -1.0,
        -0.9999879598617554
      ],
      "type": "VEC3"
    },
    {
      "bufferView": 1,
      "byteOffset": 1572768,
      "componentType": 5126,
      "count": 65532,
      "max": [
        0.999796986579895,
        0.9681400060653687
      ],
      "min": [
        0.00012199999764561653,
        0.0004889999981969595
      ],
      "type": "VEC2"
    },
    {
      "bufferView": 0,
      "byteOffset": 3627888,
      "componentType": 5125,
      "count": 251388,
      "type": "SCALAR"
    },
    {
      "bufferView": 2,
      "byteOffset": 6291072,
      "componentType": 5126,
      "count": 65532,
      "max": [
        6.911200523376465,
        -7.1796088218688965,
        2.428133010864258
      ],
      "min": [
        -4.257140636444092,
        -14.969400405883789,
        -1.1642261743545532
      ],
      "type": "VEC3"
    },
    {
      "bufferView": 2,
      "byteOffset": 7077456,
      "componentType": 5126,
      "count": 65532,
      "max": [
        0.9994919896125793,
        0.9999955892562866,
        0.9999964237213135
      ],
      "min": [
        -0.9999897480010986,
        -0.9999982714653015,
        -0.9999999403953552
      ],
      "type": "VEC3"
    },
    {
      "bufferView": 1,
      "byteOffset": 2097024,
      "componentType": 5126,
      "count": 65532,
      "max": [
        0.9997569918632507,
        0.9681400060653687
      ],
      "min": [
        0.00012199999764561653,
        0.0004980000085197389
      ],
      "type": "VEC2"
    },
    {
      "bufferView": 0,
      "byteOffset": 4633440,
      "componentType": 5125,
      "count": 279846,
      "type": "SCALAR"
    },
    {
      "bufferView": 2,
      "byteOffset": 7863840,
      "componentType": 5126,
      "count": 64555,
      "max": [
        7.348907470703125,
        -7.129654407501221,
        2.382143259048462
      ],
      "min": [
        -4.305777072906494,
        -14.940622329711914,
        -1.390560507774353
      ],
      "type": "VEC3"
    },
    {
      "bufferView": 2,
      "byteOffset": 8638500,
      "componentType": 5126,
      "count": 64555,
      "max": [
        0.9999969005584717,
        0.9999902844429016,
        0.9999995231628418
      ],
      "min": [
        -0.9999989867210388,
        -0.9999980330467224,
        -0.9999999403953552
      ],
      "type": "VEC3"
    },
    {
      "bufferView": 1,
      "byteOffset": 2621280,
      "componentType": 5126,
      "count": 64555,
      "max": [
        0.9997100234031677,
        0.9681400060653687
      ],
      "min": [
        0.00012199999764561653,
        0.06255800276994705
      ],
      "type": "VEC2"
    },
    {
      "bufferView": 0,
      "byteOffset": 5752824,
      "componentType": 5125,
      "count": 235731,
      "type": "SCALAR"
    },
    {
      "bufferView": 2,
      "byteOffset": 9413160,
      "componentType": 5126,
      "count": 17511,
      "max": [
        7.336381435394287,
        -7.129654407501221,
        2.2825562953948975
      ],
      "min": [
        -4.292438983917236,
        -7.2238450050354,
        -1.0423368215560913
      ],
      "type": "VEC3"
    },
    {
      "bufferView": 2,
      "byteOffset": 9623292,
      "componentType": 5126,
      "count": 17511,
      "max": [
        0.9999929666519165,
        0.9999828934669495,
        1.0
      ],
      "min": [
        -0.9999503493309021,
        -0.12651628255844116,
        -0.9999991655349731
      ],
      "type": "VEC3"
    },
    {
      "bufferView": 1,
      "byteOffset": 3137720,
      "componentType": 5126,
      "count": 17511,
      "max": [
        0.0,
        0.0
      ],
      "min": [
        0.0,
        0.0
      ],
      "type": "VEC2"
    },
    {
      "bufferView": 0,
      "byteOffset": 6695748,
      "componentType": 5125,
      "count": 100368,
      "type": "SCALAR"
    }
  ],
  "asset": {
    "extras": {
      "author": "noe-3d.at (https://sketchfab.com/www.noe-3d.at)",
      "license": "CC-BY-NC-4.0 (http://creativecommons.org/licenses/by-nc/4.0/)",
      "source": "https://sketchfab.com/3d-models/lowe-4afeca000f444619ad581a30aa4fd17e",
      "title": "Löwe"
    },
    "generator": "Sketchfab-12.64.0",
    "version": "2.0"
  },
  "bufferViews": [
    {
      "buffer": 0,
      "byteLength": 7097220,
      "name": "floatBufferViews",
      "target": 34963
    },
    {
      "buffer": 0,
      "byteLength": 3277808,
      "byteOffset": 7097220,
      "byteStride": 8,
      "name": "floatBufferViews",
      "target": 34962
    },
    {
      "buffer": 0,
      "byteLength": 9833424,
      "byteOffset": 10375028,
      "byteStride": 12,
      "name": "floatBufferViews",
      "target": 34962
    }
  ],
  "buffers": [
    {
      "byteLength": 20208452,
      "uri": "scene.bin"
    }
  ],
  "images": [
    {
      "uri": "textures/Loewe_O_Material_u1_v1_baseColor.png"
    }
  ],
  "materials": [
    {
      "doubleSided": true,
      "name": "Loewe_O_Material_u1_v1",
      "pbrMetallicRoughness": {
        "baseColorTexture": {
          "index": 0
        },
        "metallicFactor": 0.0
      }
    }
  ],
  "meshes": [
    {
      "name": "Object_0",
      "primitives": [
        {
          "attributes": {
            "NORMAL": 1,
            "POSITION": 0,
            "TEXCOORD_0": 2
          },
          "indices": 3,
          "material": 0,
          "mode": 4
        }
      ]
    },
    {
      "name": "Object_1",
      "primitives": [
        {
          "attributes": {
            "NORMAL": 5,
            "POSITION": 4,
            "TEXCOORD_0": 6
          },
          "indices": 7,
          "material": 0,
          "mode": 4
        }
      ]
    },
    {
      "name": "Object_2",
      "primitives": [
        {
          "attributes": {
            "NORMAL": 9,
            "POSITION": 8,
            "TEXCOORD_0": 10
          },
          "indices": 11,
          "material": 0,
          "mode": 4
        }
      ]
    },
    {
      "name": "Object_3",
      "primitives": [
        {
          "attributes": {
            "NORMAL": 13,
            "POSITION": 12,
            "TEXCOORD_0": 14
          },
          "indices": 15,
          "material": 0,
          "mode": 4
        }
      ]
    },
    {
      "name": "Object_4",
      "primitives": [
        {
          "attributes": {
            "NORMAL": 17,
            "POSITION": 16,
            "TEXCOORD_0": 18
          },
          "indices": 19,
          "material": 0,
          "mode": 4
        }
      ]
    },
    {
      "name": "Object_5",
      "primitives": [
        {
          "attributes": {
            "NORMAL": 21,
            "POSITION": 20,
            "TEXCOORD_0": 22
          },
          "indices": 23,
          "material": 0,
          "mode": 4
        }
      ]
    },
    {
      "name": "Object_6",
      "primitives": [
        {
          "attributes": {
            "NORMAL": 25,
            "POSITION": 24,
            "TEXCOORD_0": 26
          },
          "indices": 27,
          "material": 0,
          "mode": 4
        }
      ]
    }
  ],
  "nodes": [
    {
      "children": [
        1
      ],
      "matrix": [
        -0.1607107349624446,
        -0.0009819773599564487,
        0.0006289928121555458,
        0.0,
        0.0009820031044827926,
        -0.1607119706997091,
        4.647384273412078e-06,
        0.0,
        0.0006289526237525031,
        8.49054326807791e-06,
        0.16071374288105744,
        0.0,
        3.1082985401153564,
        -10.763002395629885,
        10.766856193542479,
        1.0
      ],
      "name": "Sketchfab_model"
    },
    {
      "children": [
        2,
        3,
        4,
        5,
        6,
        7,
        8
      ],
      "name": "Loewe_C.obj.cleaner.materialmerger.gles"
    },
    {
      "mesh": 0,
      "name": "Object_2"
    },
    {
      "mesh": 1,
      "name": "Object_3"
    },
    {
      "mesh": 2,
      "name": "Object_4"
    },
    {
      "mesh": 3,
      "name": "Object_5"
    },
    {
      "mesh": 4,
      "name": "Object_6"
    },
    {
      "mesh": 5,
      "name": "Object_7"
    },
    {
      "mesh": 6,
      "name": "Object_8"
    }
  ],
  "samplers": [
    {
      "magFilter": 9729,
      "minFilter": 9987,
      "wrapS": 10497,
      "wrapT": 10497
    }
  ],
  "scene": 0,
  "scenes": [
    {
      "name": "Sketchfab_Scene",
      "nodes": [
        0
      ]
    }
  ],
  "textures": [
    {
      "sampler": 0,
      "source": 0
    }
  ]
}
